<svg width="117" height="100" viewBox="0 0 117 100" fill="none" xmlns="http://www.w3.org/2000/svg">
<path d="M77.711 0.466209C77.0712 1.2706 76.5136 2.20295 75.7732 3.70204C73.9908 7.34007 73.0493 9.99089 72.702 12.3401C72.3821 14.479 72.1901 18.6929 72.3638 19.7807C72.5466 20.9507 73.7806 24.5521 74.5301 26.0969C74.9506 26.9744 75.2065 27.2304 75.4442 27.0384C75.7641 26.7642 75.8921 25.7222 76.8518 15.5211C77.3088 10.7404 77.4642 9.47901 77.6288 9.31447C77.7476 9.19564 77.7567 9.32361 77.711 10.2285C77.6196 12.3583 77.4917 19.7807 77.4917 22.6966C77.5008 26.7185 77.5008 26.7185 78.4514 24.4242C79.2467 22.4955 80.0602 20.1189 80.2704 19.086C80.6543 17.1938 80.892 13.6289 80.9103 9.44244C80.9194 6.6088 80.9103 6.49912 80.7092 5.83184C80.2156 4.26877 78.6525 0.685587 78.2503 0.191986L78.0858 2.9791e-05L77.711 0.466209Z" fill="#232125"/>
<path d="M103.131 11.4076C100.837 11.5996 98.8259 12.0749 97.144 12.8153C95.645 13.4735 93.89 14.5978 93.0033 15.4753C92.5372 15.9323 91.029 17.7422 90.5719 18.4003C89.9229 19.3327 89.4111 20.8409 89.6396 21.1791C89.7493 21.3528 89.9595 21.298 96.1843 19.2504C105.489 16.2066 105.837 16.0969 107.052 15.8409C108.305 15.585 108.277 15.6033 105.051 17.0475C103.177 17.8793 102.135 18.3089 96.5956 20.5027C90.9284 22.7422 90.837 22.7879 90.837 23.2906C90.837 23.6014 90.8644 23.6106 92.528 23.7385C97.144 24.095 99.3652 24.0676 101.102 23.6106C102.583 23.2267 105.818 21.9287 107.29 21.1243C108.844 20.2833 112.098 17.7879 113.753 16.1791C114.566 15.3839 116.129 13.3455 116.65 12.3949L116.988 11.7916L116.275 11.7367C112.775 11.4534 104.978 11.2614 103.131 11.4076Z" fill="#232125"/>
<path d="M58.8448 13.0256C58.2963 13.6746 57.3549 15.2285 56.6967 16.5722C55.3896 19.2322 54.6492 22.2395 54.3567 26.0695C54.0368 30.1919 54.9234 34.8629 56.8795 39.3784C57.8027 41.4991 58.5706 42.9433 58.5706 42.5594C58.5706 42.4771 58.6071 41.5905 58.662 40.5941C58.7077 39.5978 58.8539 36.5448 58.9819 33.8025C59.2744 27.468 59.5669 22.0292 59.6492 21.3254L59.7223 20.777L59.832 21.5082C59.9691 22.404 60.1336 25.0366 60.4901 32.0475C60.8466 38.9671 61.0751 41.8921 61.2853 42.2303C61.3859 42.404 61.8063 41.8738 62.1354 41.1609C62.5467 40.3016 63.4791 37.4954 63.863 35.9781C64.4297 33.7934 64.6948 31.0877 64.7039 27.596C64.7131 25.1554 64.6399 24.4881 64.1372 22.4406C63.7807 21.0146 63.4151 19.872 62.8667 18.5466C62.2908 17.1572 61.3219 15.2011 60.81 14.4333C60.3347 13.7203 59.4115 12.596 59.3018 12.596C59.2561 12.596 59.055 12.7879 58.8448 13.0256Z" fill="#232125"/>
<path d="M85.4714 23.5192C85.3069 23.5832 84.9413 23.8026 84.6488 24.0037C84.3563 24.2048 83.296 24.8629 82.2905 25.4845C78.5428 27.7879 77.9578 28.2267 74.4935 31.4077C73.4241 32.3857 72.2449 33.4369 71.8885 33.7294C71.5228 34.0219 71.0567 34.4058 70.8464 34.5887C70.627 34.7623 70.2888 35.2102 70.0786 35.5667C69.3748 36.7916 68.1865 38.3729 65.9288 41.0695C64.4388 42.8428 63.3054 44.3876 61.5138 47.0567C59.9874 49.3327 59.7223 49.6526 56.6967 52.9525C55.673 54.0585 54.4756 55.3931 54.0277 55.9232C53.1319 56.9744 51.6237 58.3638 49.6493 59.9634C48.9546 60.5393 47.9309 61.3894 47.3733 61.8556C46.1027 62.9342 44.366 64.0768 41.7975 65.5393C38.2418 67.5503 37.6842 67.8336 33.3881 69.6801C29.5856 71.3163 26.3773 72.2578 21.094 73.2815C16.2312 74.223 13.3519 74.5521 6.83462 74.8903C3.86392 75.0457 2.11806 75.2285 1.15829 75.4845C0.216809 75.7313 0.107122 75.8227 0.0339969 76.4808C-0.0574093 77.2578 0.0339969 77.6325 0.326497 77.7697C1.63361 78.3638 11.3684 77.8154 18.1964 76.755C21.286 76.2797 25.0336 75.4205 29.0006 74.2779C32.7483 73.2084 37.4374 71.1243 42.1631 68.4552C44.3843 67.1938 44.8596 66.8921 46.3221 65.7952C46.9528 65.3291 48.004 64.5887 48.653 64.1499C50.216 63.1079 50.8376 62.596 53.1319 60.5302C54.1922 59.5795 55.4719 58.4369 55.9838 57.9982C56.4956 57.5594 57.1355 56.947 57.4097 56.6362C59.704 53.9945 61.2305 52.1389 62.0806 50.9689C62.4645 50.4296 63.3054 49.3601 63.9544 48.5923C64.5942 47.8245 65.5449 46.5996 66.0659 45.8684C66.5869 45.1371 67.2633 44.2139 67.5741 43.8117C67.8849 43.4095 68.479 42.5868 68.8995 41.9835C70.6728 39.4333 72.181 37.6051 75.0694 34.5338C77.4185 32.0475 77.7659 31.7093 79.3106 30.5119C81.6415 28.702 83.1771 27.7605 85.6451 26.6271C86.4586 26.2431 87.1716 25.8958 87.2173 25.8501C87.3544 25.713 86.9979 24.3693 86.7054 23.958C86.3032 23.3638 86.0381 23.2724 85.4714 23.5192Z" fill="#232125"/>
<path d="M38.3698 28.1902C38.1138 28.6746 37.5197 29.6344 37.0535 30.32C33.0408 36.1883 31.8434 40.0183 31.8342 47.011C31.8342 49.4607 31.8434 49.6253 32.0902 50.777C32.9402 54.8264 33.6898 57.203 34.8963 59.7167C35.7921 61.5905 36.2583 62.1207 36.5325 61.5997C36.7427 61.2158 37.0078 58.6472 37.6842 50.3017C38.123 44.8903 38.4338 41.4168 38.8359 37.139C38.8999 36.5357 38.9822 36.0055 39.0188 35.9598C39.0553 35.9141 39.0919 37.0019 39.101 38.3821C39.101 39.7624 39.1467 43.6015 39.1924 46.9196C39.2381 50.2377 39.3021 55.2834 39.3387 58.1353C39.3752 60.9964 39.4301 63.3273 39.4667 63.3273C39.5398 63.3273 40.6549 61.4626 41.6238 59.7167C43.4885 56.3437 44.2472 54.2779 44.8048 51.0786C45.4629 47.3035 45.6366 44.607 45.3715 42.532C44.7042 37.5137 44.0461 35.256 41.8615 30.5485C41.0754 28.8391 40.7189 28.2633 40.2436 27.9068C39.9602 27.6874 39.1284 27.3126 38.9274 27.3126C38.8817 27.3126 38.6349 27.7057 38.3698 28.1902Z" fill="#232125"/>
<path d="M84.2466 30.5576C83.7621 30.6216 82.9669 30.7861 82.4733 30.9141C81.9889 31.042 81.5684 31.1517 81.5501 31.1517C81.5318 31.1517 81.5135 31.1883 81.5135 31.234C81.5135 31.3254 83.5519 32.2395 85.0967 32.8336C85.6908 33.0621 87.8297 33.8025 89.8498 34.4881C93.5883 35.7495 94.5572 36.0969 96.5956 36.9104L97.7382 37.3674H96.9978C96.0014 37.3674 95.2793 37.2212 91.7785 36.3071C87.263 35.1371 81.7238 33.8391 81.6324 33.9305C81.4221 34.1407 82.711 35.5301 84.21 36.7276C86.5409 38.5832 89.5116 40.0731 91.9339 40.6216C94.0362 41.0877 97.8021 41.3345 102.089 41.2797C104.347 41.2523 105.325 41.1974 106.221 41.0695C107.519 40.8775 107.446 40.9506 107.281 40.0548C107.153 39.3418 107.034 39.1682 106.294 38.702C105.873 38.4278 105.599 38.1718 105.435 37.8976C104.767 36.755 101.925 34.8172 98.2866 33.0164C95.7272 31.755 94.0179 31.1883 91.4311 30.7312C90.2154 30.5119 89.7767 30.4844 87.5921 30.457C85.8462 30.4387 84.8682 30.4662 84.2466 30.5576Z" fill="#232125"/>
<path d="M15.8839 30.7221C15.765 30.7861 15.5274 31.0146 15.3537 31.2431C15.18 31.4717 14.5219 32.2486 13.8912 32.9707C11.6609 35.5027 10.9388 36.4899 9.5677 38.9397C7.84012 42.0018 6.83465 44.6983 6.45989 47.2852C6.22223 48.8848 6.09426 51.1152 6.04856 54.3236L5.99371 57.7971L6.23137 58.7569C7.06317 62.011 7.73043 64.0859 8.7816 66.6453C9.30262 67.925 9.54028 68.4095 9.59512 68.3181C9.91504 67.7422 10.7925 63.4552 11.6335 58.3455C13.5439 46.7185 14.3757 41.9104 14.6042 41.1609C14.6682 40.9598 14.6773 41.0695 14.6499 41.5722C14.4214 44.8903 13.2879 62.925 13.0046 67.66C12.9314 68.9214 12.8857 69.9543 12.8949 69.9726C12.9497 70.0183 14.8327 67.7879 15.3629 67.0475C16.542 65.4022 18.233 62.2943 18.7906 60.7313C19.4396 58.9397 20.052 56.5631 20.3262 54.7806C20.7375 52.0292 21.03 46.3345 20.8381 44.7075C20.7193 43.6472 20.052 40.9781 19.2293 38.2084C18.5712 36.0146 18.3518 35.4113 17.191 32.5411C16.3592 30.521 16.3409 30.4936 15.8839 30.7221Z" fill="#232125"/>
<path d="M74.7494 46.7916C72.1444 46.9927 68.9908 47.8428 67.8574 48.638L67.5832 48.83L67.8574 48.9031C68.2596 49.022 73.3052 50.2742 75.1151 50.713C82.9943 52.6051 87.071 53.6746 87.3178 53.9214C87.4275 54.0311 86.4037 54.0311 85.1241 53.9123C83.7621 53.7843 82.391 53.5832 76.7147 52.6783C71.7696 51.8922 69.2651 51.5357 68.6252 51.5357C68.223 51.5357 67.8026 51.6728 67.8026 51.8008C67.8026 51.8556 68.0494 52.1755 68.3419 52.5229C68.6435 52.8702 69.0091 53.3547 69.1645 53.6106C69.3656 53.9397 69.5576 54.1134 69.8318 54.2413C70.0512 54.3327 70.5996 54.7075 71.0658 55.064C72.2541 55.9964 74.4661 57.0384 76.4679 57.6234C79.6762 58.5558 84.1186 58.8666 87.592 58.4004C89.9046 58.0896 92.8022 57.5046 94.2647 57.0567C95.0233 56.819 96.5407 56.2614 96.623 56.1975C96.7783 56.0603 93.7254 53.4278 91.8607 52.0933C90.1331 50.8593 87.1533 49.2322 85.2612 48.4918C81.9157 47.1755 77.9852 46.5357 74.7494 46.7916Z" fill="#232125"/>
<path d="M51.5323 68.4552C48.7535 68.638 45.4812 69.2779 45.9656 69.543C46.0388 69.5887 48.9089 70.5484 52.3549 71.691C68.7258 77.1207 69.3565 77.3309 69.3565 77.4863C69.3565 77.5685 66.4132 77.1481 64.8319 76.8464C64.2835 76.7459 62.4462 76.3163 60.7643 75.8958C54.2288 74.2779 47.2088 72.7148 45.8925 72.596L45.207 72.532L45.3441 72.7971C45.7006 73.4826 49.5579 77.5503 50.6091 78.3547C51.8156 79.2779 53.4427 80.064 56.6967 81.3071C59.4846 82.3675 61.395 82.7239 65.1244 82.8885C70.0786 83.0987 73.9177 82.5411 77.6745 81.042C78.3052 80.7952 78.8445 80.5576 78.8902 80.521C78.9267 80.4845 78.0035 79.5064 76.8335 78.3547C74.5392 76.0969 73.287 75.0731 70.1792 72.8793C68.2779 71.5356 67.4735 71.106 65.1701 70.1919C62.2999 69.0494 60.5541 68.6106 58.2049 68.4461C56.6785 68.3455 53.1959 68.3455 51.5323 68.4552Z" fill="#232125"/>
<path d="M16.286 79.8812C16.0301 79.9269 15.701 80 15.5639 80.0548C15.3171 80.1463 15.3171 80.1554 15.4816 80.3382C15.765 80.6581 16.5419 81.1426 18.9459 82.5229C20.2073 83.2358 21.9075 84.2322 22.7393 84.7166C23.5711 85.2102 25.3626 86.2431 26.7155 87.0018C28.0774 87.7697 29.6496 88.6929 30.2072 89.0676C30.7739 89.4333 32.5472 90.4845 34.1376 91.3985C37.4283 93.2907 38.059 93.6746 38.9639 94.3876L39.6037 94.8903L39.1467 94.8446C38.8999 94.8172 38.2966 94.6435 37.8213 94.4516C36.7701 94.0311 32.3918 91.9927 29.2748 90.4753C24.8599 88.3181 15.9844 84.2322 15.0429 83.9214C14.4396 83.7203 14.3116 83.702 14.1837 83.8117C13.9917 83.9671 14.0648 84.4516 14.4122 85.2194C14.7961 86.0603 15.3445 86.8739 16.5785 88.4187C17.7302 89.8538 18.0044 90.1463 18.5346 90.4936C18.7265 90.6216 18.8911 90.8227 18.9459 91.0055C19.0099 91.2249 19.1013 91.3254 19.3115 91.3711C19.5126 91.426 19.6132 91.5265 19.6863 91.7642C19.7594 91.9836 19.8874 92.1207 20.1159 92.2304C20.2896 92.3218 21.1122 92.925 21.9349 93.5832C23.955 95.2102 24.4851 95.5484 26.7155 96.6453C29.3845 97.9616 31.7154 98.8665 33.3333 99.2048C34.9603 99.543 37.8853 99.7532 42.9401 99.8995C46.4044 100 48.269 99.9817 48.3879 99.8629C48.525 99.7349 48.1502 99.0494 47.1996 97.6782C46.6329 96.8556 45.9565 95.8318 45.6914 95.3839C45.2069 94.5795 44.951 94.3144 44.6585 94.3144C44.5671 94.3144 44.366 94.1042 44.1649 93.7843C43.7353 93.117 39.622 89.0037 38.8268 88.4552C38.388 88.1536 38.2052 87.9616 38.1321 87.7331C38.059 87.4954 37.9219 87.3492 37.6294 87.1938C37.41 87.0658 36.9804 86.7825 36.6787 86.5539C36.3771 86.3254 35.4356 85.6124 34.5855 84.9726C31.1395 82.3583 28.0134 81.0695 22.9678 80.192C20.8015 79.8172 17.5748 79.6618 16.286 79.8812Z" fill="#232125"/>
</svg>
